HIERARCHY
ROOT bvh1amy
{
	OFFSET 8.0 26.7 -59.5
	CHANNELS 0
	JOINT sm-T-A6
	{
		OFFSET -0.130 -6.764 -9.552
		CHANNELS 6 Xposition Yposition Zposition Xrotation Yrotation Zrotation
		End Site
		{
			OFFSET -1.694 -1.974 -7.450
		}
	}
	JOINT sm-H-A14
	{
		OFFSET -1.837 -15.373 -19.446
		CHANNELS 6 Xposition Yposition Zposition Xrotation Yrotation Zrotation
		End Site
		{
			OFFSET -1.459 -2.911 9.598
		}
	}
	JOINT sm-T-A24
	{
		OFFSET -1.085 -20.719 -4.430
		CHANNELS 6 Xposition Yposition Zposition Xrotation Yrotation Zrotation
		End Site
		{
			OFFSET 1.539 1.901 6.787
		}
	}
	JOINT sm-T-A32
	{
		OFFSET 0.249 -14.877 5.706
		CHANNELS 6 Xposition Yposition Zposition Xrotation Yrotation Zrotation
		End Site
		{
			OFFSET -5.977 6.349 -8.570
		}
	}
	JOINT sm-S-A40
	{
		OFFSET -11.130 -5.391 -10.928
		CHANNELS 6 Xposition Yposition Zposition Xrotation Yrotation Zrotation
		End Site
		{
			OFFSET 2.216 4.362 -7.594
		}
	}
	JOINT sm-S-A50
	{
		OFFSET -10.809 1.061 -14.487
		CHANNELS 6 Xposition Yposition Zposition Xrotation Yrotation Zrotation
		End Site
		{
			OFFSET -9.242 -5.067 0.213
		}
	}
	JOINT sm-G-A59
	{
		OFFSET -15.113 -9.089 -16.842
		CHANNELS 6 Xposition Yposition Zposition Xrotation Yrotation Zrotation
		End Site
		{
			OFFSET 4.453 -3.388 1.312
		}
	}
	JOINT sm-H-A67
	{
		OFFSET -15.113 -16.329 -12.343
		CHANNELS 6 Xposition Yposition Zposition Xrotation Yrotation Zrotation
		End Site
		{
			OFFSET 5.338 -3.250 13.361
		}
	}
	JOINT sm-T-A80
	{
		OFFSET -7.784 -17.277 3.965
		CHANNELS 6 Xposition Yposition Zposition Xrotation Yrotation Zrotation
		End Site
		{
			OFFSET -3.170 13.381 -7.705
		}
	}
	JOINT sm-B-A92
	{
		OFFSET -16.797 6.521 -15.834
		CHANNELS 6 Xposition Yposition Zposition Xrotation Yrotation Zrotation
		End Site
		{
			OFFSET -7.405 2.221 -9.159
		}
	}
	JOINT sm-S-A110
	{
		OFFSET -28.277 -4.792 -16.673
		CHANNELS 6 Xposition Yposition Zposition Xrotation Yrotation Zrotation
		End Site
		{
			OFFSET 1.269 8.971 2.509
		}
	}
	JOINT sm-G-A120
	{
		OFFSET -24.437 13.267 -13.768
		CHANNELS 6 Xposition Yposition Zposition Xrotation Yrotation Zrotation
		End Site
		{
			OFFSET 5.714 6.463 0.719
		}
	}
	JOINT sm-T-A128
	{
		OFFSET -18.563 17.467 -18.724
		CHANNELS 6 Xposition Yposition Zposition Xrotation Yrotation Zrotation
		End Site
		{
			OFFSET -6.843 2.070 6.073
		}
	}
	JOINT sm-S-A136
	{
		OFFSET -19.218 18.040 -6.022
		CHANNELS 6 Xposition Yposition Zposition Xrotation Yrotation Zrotation
		End Site
		{
			OFFSET 9.036 -3.395 -3.561
		}
	}
	JOINT sm-S-A144
	{
		OFFSET -11.825 11.955 -16.536
		CHANNELS 6 Xposition Yposition Zposition Xrotation Yrotation Zrotation
		End Site
		{
			OFFSET -10.497 0.087 10.561
		}
	}
	JOINT sm-H-A154
	{
		OFFSET -27.776 7.930 -5.384
		CHANNELS 6 Xposition Yposition Zposition Xrotation Yrotation Zrotation
		End Site
		{
			OFFSET 7.533 -17.461 3.400
		}
	}
	JOINT sm-T-A170
	{
		OFFSET -18.141 -12.135 -3.122
		CHANNELS 6 Xposition Yposition Zposition Xrotation Yrotation Zrotation
		End Site
		{
			OFFSET 7.098 10.560 3.047
		}
	}
	JOINT sm-H-A186
	{
		OFFSET -16.794 11.052 3.306
		CHANNELS 6 Xposition Yposition Zposition Xrotation Yrotation Zrotation
		End Site
		{
			OFFSET -4.720 -10.924 1.825
		}
	}
	JOINT sm-B-A204
	{
		OFFSET -2.698 9.428 -1.193
		CHANNELS 6 Xposition Yposition Zposition Xrotation Yrotation Zrotation
		End Site
		{
			OFFSET 12.370 9.122 2.038
		}
	}
	JOINT sm-T-A213
	{
		OFFSET 16.538 19.602 -1.522
		CHANNELS 6 Xposition Yposition Zposition Xrotation Yrotation Zrotation
		End Site
		{
			OFFSET -6.177 -3.461 8.842
		}
	}
	JOINT sm-H-A222
	{
		OFFSET 2.572 16.393 7.446
		CHANNELS 6 Xposition Yposition Zposition Xrotation Yrotation Zrotation
		End Site
		{
			OFFSET -16.464 -7.439 2.701
		}
	}
	JOINT sm-T-A237
	{
		OFFSET -12.784 2.355 12.825
		CHANNELS 6 Xposition Yposition Zposition Xrotation Yrotation Zrotation
		End Site
		{
			OFFSET 8.283 1.099 -7.609
		}
	}
	JOINT sm-H-A246
	{
		OFFSET 4.908 7.360 4.149
		CHANNELS 6 Xposition Yposition Zposition Xrotation Yrotation Zrotation
		End Site
		{
			OFFSET 10.091 -0.511 -2.438
		}
	}
	JOINT sm-G-A260
	{
		OFFSET 16.951 8.293 9.490
		CHANNELS 6 Xposition Yposition Zposition Xrotation Yrotation Zrotation
		End Site
		{
			OFFSET -5.898 5.681 6.026
		}
	}
	JOINT sm-S-A268
	{
		OFFSET 9.794 9.247 15.174
		CHANNELS 6 Xposition Yposition Zposition Xrotation Yrotation Zrotation
		End Site
		{
			OFFSET -6.677 -2.748 -2.925
		}
	}
	JOINT sm-T-A276
	{
		OFFSET -0.703 4.688 14.422
		CHANNELS 6 Xposition Yposition Zposition Xrotation Yrotation Zrotation
		End Site
		{
			OFFSET 0.974 -3.721 -7.464
		}
	}
	JOINT sm-T-A286
	{
		OFFSET 3.347 -0.011 -6.501
		CHANNELS 6 Xposition Yposition Zposition Xrotation Yrotation Zrotation
		End Site
		{
			OFFSET 2.997 -0.102 -5.408
		}
	}
	JOINT sm-G-A295
	{
		OFFSET 8.340 4.872 -8.801
		CHANNELS 6 Xposition Yposition Zposition Xrotation Yrotation Zrotation
		End Site
		{
			OFFSET 8.917 -6.256 5.096
		}
	}
	JOINT sm-H-A304
	{
		OFFSET 15.089 -4.139 1.738
		CHANNELS 6 Xposition Yposition Zposition Xrotation Yrotation Zrotation
		End Site
		{
			OFFSET -6.727 -0.761 7.897
		}
	}
	JOINT sm-S-A314
	{
		OFFSET 3.322 -1.914 11.847
		CHANNELS 6 Xposition Yposition Zposition Xrotation Yrotation Zrotation
		End Site
		{
			OFFSET -0.014 -4.490 -11.635
		}
	}
	JOINT sm-H-A331
	{
		OFFSET 12.362 -15.215 1.458
		CHANNELS 6 Xposition Yposition Zposition Xrotation Yrotation Zrotation
		End Site
		{
			OFFSET -6.506 1.878 13.098
		}
	}
	JOINT sm-E-A350
	{
		OFFSET 5.845 -0.767 19.738
		CHANNELS 6 Xposition Yposition Zposition Xrotation Yrotation Zrotation
		End Site
		{
			OFFSET 14.700 7.191 -5.246
		}
	}
	JOINT sm-T-A359
	{
		OFFSET 22.444 4.397 10.308
		CHANNELS 6 Xposition Yposition Zposition Xrotation Yrotation Zrotation
		End Site
		{
			OFFSET -9.566 -6.376 8.136
		}
	}
	JOINT sm-T-A367
	{
		OFFSET 10.750 -6.722 21.572
		CHANNELS 6 Xposition Yposition Zposition Xrotation Yrotation Zrotation
		End Site
		{
			OFFSET 7.503 3.724 -9.659
		}
	}
	JOINT sm-S-A378
	{
		OFFSET 28.715 -3.154 15.417
		CHANNELS 6 Xposition Yposition Zposition Xrotation Yrotation Zrotation
		End Site
		{
			OFFSET -6.238 -1.135 7.164
		}
	}
	JOINT sm-S-A386
	{
		OFFSET 20.295 -12.001 23.430
		CHANNELS 6 Xposition Yposition Zposition Xrotation Yrotation Zrotation
		End Site
		{
			OFFSET -1.443 -0.176 -14.001
		}
	}
	JOINT sm-T-A395
	{
		OFFSET 20.949 -6.377 6.821
		CHANNELS 6 Xposition Yposition Zposition Xrotation Yrotation Zrotation
		End Site
		{
			OFFSET -5.073 -4.985 12.665
		}
	}
}
MOTION
Frames: 4
Frame Time: 0.01400
-0.24884 -6.95073 -9.17626 1.194 1.986 2.056 -2.01186 -15.55629 -18.98358 0.858 1.576 0.070 -1.24767 -20.81680 -4.05213 0.060 -2.100 -1.130 0.12048 -15.01349 6.03847 0.332 -1.901 0.171 -10.95892 -5.36013 -10.79336 -0.353 1.102 2.214 -10.52512 1.24106 -14.56444 1.580 3.251 0.816 -15.05961 -9.15343 -16.64358 -0.053 2.668 1.402 -15.39561 -16.29767 -12.00473 -1.068 1.400 -2.810 -8.06319 -17.31631 4.29640 1.166 -2.977 1.905 -16.05184 6.87606 -16.12575 2.692 1.299 4.840 -27.82913 -4.34927 -17.44595 -1.563 -3.747 -1.313 -23.84569 13.56801 -14.03722 -2.909 -0.730 0.804 -17.77208 17.81874 -19.07718 2.743 1.345 -1.000 -18.99825 18.13242 -5.83023 -1.447 3.557 1.851 -11.40874 12.16927 -16.55821 4.687 2.562 -3.531 -27.88359 8.25210 -5.82677 -0.552 5.491 0.446 -18.53686 -12.15034 -2.95747 -1.479 0.219 0.539 -17.17544 11.13065 3.26572 0.169 4.518 1.073 -3.52418 9.16151 -1.07767 -6.372 -10.223 -1.234 15.43398 19.08478 -2.76948 13.408 -11.281 -14.104 2.10155 15.97284 8.04503 1.559 0.868 -0.613 -13.20990 1.94781 13.23272 -1.585 1.122 0.928 4.46532 7.19664 4.18590 -6.275 -2.792 0.627 16.82545 8.35529 9.15133 0.001 -2.277 -1.615 9.65316 8.95217 15.36085 4.678 -1.809 -0.611 -0.85967 4.14552 14.88974 -1.650 0.483 3.494 2.94395 -0.05113 -6.21897 -2.094 -0.115 0.919 7.88882 4.93120 -8.83403 -2.450 -1.413 -1.328 15.23014 -4.20433 1.61168 0.278 -1.511 -2.660 3.30284 -2.20994 12.09515 -0.822 -0.093 3.373 12.90543 -15.37730 1.25823 -0.298 -2.702 -3.314 5.95164 -0.78971 19.49908 -6.521 -6.061 -0.707 22.60193 4.57564 9.97007 1.377 -0.189 -4.180 11.29811 -6.75395 21.29924 -3.584 -3.213 0.806 28.89548 -2.09069 15.56930 3.515 4.774 -11.101 21.21146 -11.72182 22.91228 0.990 -1.539 8.549 21.60547 -6.21009 6.40823 -0.812 -1.584 -2.748 
-0.17333 -7.06139 -9.11018 1.681 3.216 3.140 -1.90076 -15.65313 -18.90511 1.447 3.271 -0.468 -1.42489 -20.79996 -3.77432 0.488 -1.316 -2.401 -0.03688 -14.96611 6.12810 1.731 -1.133 0.893 -10.91190 -5.39206 -10.96052 -0.563 1.683 2.145 -10.50345 1.24811 -14.78615 2.140 4.596 0.986 -14.93741 -9.21998 -16.81743 -0.498 4.256 1.266 -15.43282 -16.35010 -12.13843 -0.968 2.805 -3.748 -8.18322 -17.34156 4.24109 1.609 -1.627 2.019 -16.19259 7.19712 -16.18213 1.196 -0.700 6.012 -27.83906 -4.31339 -17.72759 -3.756 -5.673 -3.024 -23.94613 13.57668 -13.72515 -2.560 1.442 1.315 -17.91533 17.99228 -18.62864 2.299 0.290 -2.503 -19.03613 17.98740 -5.70830 -1.903 2.022 1.375 -11.50301 12.11198 -16.51326 1.898 2.288 -2.478 -27.94287 8.06254 -6.01430 -1.411 5.405 0.362 -18.60466 -12.22529 -3.15677 -2.632 -0.222 0.161 -17.23345 10.88565 3.14722 -0.051 5.492 0.989 -3.35427 9.12987 -1.18372 -5.943 -9.591 -0.825 15.69295 19.07491 -2.70281 11.969 -9.260 -8.950 2.13860 16.01465 7.85517 1.645 0.831 -0.897 -13.20577 1.95658 13.14708 -1.114 1.422 0.324 4.51754 7.20946 4.19989 -5.164 -2.357 0.678 16.90014 8.40838 9.18668 0.814 -2.380 -1.674 9.69525 9.08880 15.35330 3.226 -2.217 -0.494 -0.85641 4.31481 14.89352 -0.500 0.119 2.743 2.98754 -0.15519 -6.16723 -1.246 0.491 1.108 7.90292 4.83381 -8.75959 -1.708 -1.223 -0.949 15.17586 -4.15227 1.75980 0.588 -1.882 -1.698 3.25589 -2.10666 12.23649 -0.048 -0.490 3.637 12.69070 -15.27736 1.55028 0.425 -2.991 -2.201 6.14054 -0.68986 19.58942 -4.852 -5.574 -0.457 22.75901 4.60729 9.99973 0.064 -2.074 -2.723 11.45563 -6.70208 21.36894 -1.251 -2.823 -1.165 29.34391 -2.30487 15.17028 2.859 4.935 -14.209 21.21572 -11.85201 22.81304 0.173 -3.388 7.180 21.61848 -6.22789 6.40908 -0.765 -2.181 -2.521 
-0.10179 -7.16673 -9.09606 1.857 3.951 3.745 -1.81189 -15.73488 -18.89882 1.888 4.441 -0.979 -1.57606 -20.79917 -3.57570 0.830 -0.463 -3.419 -0.16907 -14.93477 6.17283 2.929 -0.224 1.555 -10.88999 -5.42478 -11.11534 -0.751 2.151 1.865 -10.50995 1.24178 -14.96297 2.664 5.578 1.179 -14.85248 -9.27122 -16.99456 -0.820 5.215 1.141 -15.45756 -16.40841 -12.30626 -1.062 3.989 -4.880 -8.26881 -17.38091 4.15078 2.520 -4.318 4.691 -16.32671 7.45594 -16.19562 0.371 -2.487 7.757 -27.88967 -4.29367 -17.89935 -5.473 -7.581 -4.730 -24.06927 13.56686 -13.40223 -4.161 1.521 1.197 -18.07081 18.12653 -18.18590 3.194 -0.800 -5.181 -19.08687 17.84829 -5.58294 -2.768 0.709 0.987 -11.60647 12.04621 -16.44184 0.019 1.809 -2.108 -27.98967 7.86970 -6.13448 -2.423 5.428 0.200 -18.63335 -12.30488 -3.35292 -3.541 -0.651 -0.197 -17.25272 10.64770 3.05637 -0.207 6.194 0.763 -3.13715 9.12247 -1.28582 -3.810 -7.055 -0.510 16.00866 19.16992 -2.44736 8.410 -5.674 -2.842 2.19704 16.07700 7.61544 1.589 0.649 -1.151 -13.16361 1.98327 13.02651 -0.754 1.511 -0.116 4.58837 7.24098 4.19808 -3.776 -1.733 0.579 16.94445 8.46180 9.25233 1.668 -2.452 -1.888 9.72448 9.23644 15.32068 1.658 -2.199 -0.383 -0.84814 4.50314 14.84193 0.594 0.506 3.201 3.06832 -0.27635 -6.15615 -0.954 1.115 2.556 7.95265 4.72607 -8.69371 -1.080 -0.608 -0.701 15.10449 -4.10051 1.90703 1.939 -1.993 -1.949 3.21140 -2.00258 12.33657 0.800 -0.763 3.663 12.44682 -15.17629 1.85749 2.071 -3.366 -2.782 6.29718 -0.57530 19.68444 -4.421 -5.597 0.408 22.87914 4.64984 10.04164 1.483 -1.793 -3.723 11.54830 -6.61731 21.45747 -1.424 -4.022 0.788 29.77905 -2.57430 14.69626 3.246 4.193 -17.084 21.14719 -11.95136 22.79111 -0.027 -4.990 7.601 21.56843 -6.22938 6.45706 -0.503 -2.818 -1.871 
-0.03874 -7.25109 -9.13243 1.735 4.107 3.847 -1.75433 -15.78924 -18.96029 2.050 4.946 -1.275 -1.67794 -20.81971 -3.48205 1.004 0.320 -4.043 -0.25212 -14.92602 6.16795 3.714 0.676 2.012 -10.88070 -5.44151 -11.23314 -1.037 2.291 1.709 -10.52698 1.23646 -15.06983 3.021 6.079 1.294 -14.80380 -9.29248 -17.14685 -0.961 5.447 1.149 -15.46345 -16.45896 -12.47930 -1.227 4.742 -5.641 -8.30443 -17.42466 4.04225 2.917 -6.766 7.053 -16.42718 7.62633 -16.16575 -0.451 -3.486 8.715 -27.95301 -4.29919 -17.95057 -6.543 -8.803 -5.956 -24.21334 13.54604 -13.11314 -6.233 0.833 0.486 -18.24091 18.20563 -17.80929 4.150 -1.400 -7.800 -19.15688 17.74722 -5.46410 -3.896 -0.200 0.690 -11.71001 11.99580 -16.35085 0.071 1.414 -3.390 -28.01290 7.70109 -6.17472 -3.416 5.526 -0.036 -18.61557 -12.37279 -3.51555 -4.029 -0.905 -0.428 -17.23277 10.45343 3.01001 -0.315 6.565 0.401 -2.92076 9.13882 -1.36646 -0.741 -3.355 -0.324 16.31559 19.35039 -2.06675 3.939 -1.572 0.873 2.26622 16.14212 7.37595 1.679 0.474 -1.388 -13.09110 2.01737 12.89458 -1.191 1.277 0.176 4.66733 7.27819 4.16927 -2.435 -1.100 0.422 16.96414 8.50382 9.31327 2.385 -2.501 -2.154 9.74354 9.36627 15.26069 1.584 -1.322 0.193 -0.83358 4.67278 14.74410 1.480 1.446 4.316 3.17386 -0.39707 -6.18638 -0.837 1.733 4.193 8.02891 4.61541 -8.65348 -0.855 0.400 -0.668 15.02997 -4.06736 2.02557 3.451 -1.991 -2.466 3.17871 -1.92044 12.37755 1.590 -0.886 3.429 12.21770 -15.09857 2.13629 3.986 -3.798 -3.969 6.39903 -0.45887 19.74792 -5.140 -5.996 1.777 22.94309 4.69716 10.07361 3.254 -1.224 -4.785 11.55575 -6.50421 21.54931 -1.950 -5.136 3.570 30.10464 -2.82829 14.25179 4.100 1.990 -17.989 21.01344 -11.98679 22.87709 0.909 -5.951 10.464 21.46170 -6.21178 6.55562 0.719 -2.571 -2.917 
